<?xml version="1.0" encoding="UTF-8" standalone="no"?>
<!DOCTYPE svg PUBLIC "-//W3C//DTD SVG 1.1//EN" "http://www.w3.org/Graphics/SVG/1.1/DTD/svg11.dtd">
<svg width="100%" height="100%" viewBox="0 0 480 200" version="1.1" xmlns="http://www.w3.org/2000/svg" xmlns:xlink="http://www.w3.org/1999/xlink" xml:space="preserve" xmlns:serif="http://www.serif.com/" style="fill-rule:evenodd;clip-rule:evenodd;stroke-linejoin:round;stroke-miterlimit:2;">
    <path d="M25.738,68.87C26.975,69.123 27.026,69.164 27.722,70.216C28.696,71.687 28.341,71.824 27.983,73.553C21.823,103.309 42.904,107.025 63.336,120.311C73.867,127.158 78.632,133.506 81.49,138.162C81.807,138.678 81.817,138.706 81.683,139.299C81.679,139.315 81.024,140.239 81.015,140.241C80.641,140.306 80.261,140.513 79.891,140.429C79.105,140.251 79.179,140.099 78.732,139.43C62.126,114.605 26.501,116.814 21.535,88.578C20.313,81.627 21.387,74.84 22.028,71.33C22.258,70.073 23.217,69.438 23.378,69.332C23.538,69.226 24.469,68.61 25.738,68.87Z" style="fill:rgb(53,132,228);fill-opacity:0.46;"/>
    <path d="M237.922,108.061C178.132,180.214 52.882,183.485 36.657,114.761C32.728,98.121 33.069,66.379 64.479,47.435C109.604,20.218 195.851,35.064 242.373,92.375C254.344,77.054 266.952,67.813 269.857,65.649C295.437,46.594 320.356,39.992 329.993,37.706C360.862,30.382 393.35,32.367 416.8,46.175C443.491,61.892 449.264,87.552 447.115,107.62C441.718,158.011 383.615,177.507 323.737,162.126C295.021,154.749 262.067,138.168 237.922,108.061ZM233.706,102.576C190.842,46.602 108.416,32.683 68.425,57.758C48.419,70.302 44.321,89.052 45.142,103.829C47.782,151.292 107.139,165.753 162.193,148.925C202.219,136.691 224.853,113.22 233.706,102.576ZM245.97,96.99C251.644,104.398 273.107,130.833 315.231,144.902C367.468,162.35 423.454,150.598 431.426,110.895C431.831,108.881 434.856,94.077 428.465,79.666C416.43,52.528 379.775,43.341 344.48,47.312C339.063,47.922 298.109,51.88 262.059,81.589C257.067,85.702 251.809,90.391 245.97,96.99Z" style="fill:rgb(53,132,228);fill-opacity:0.45;"/>
    <g transform="matrix(2.163311,0,0,2.163311,-136.107383,-46.532438)">
        <path d="M111,34L123,40L111,46L111,34Z" style="fill:rgb(53,132,228);fill-opacity:0.55;fill-rule:nonzero;"/>
    </g>
    <g transform="matrix(-2.163311,0,0,2.163311,370.107383,73.467562)">
        <path d="M111,34L123,40L111,46L111,34Z" style="fill:rgb(53,132,228);fill-opacity:0.55;fill-rule:nonzero;"/>
    </g>
    <g transform="matrix(-2.163311,0,0,2.163311,613.57047,-46.532438)">
        <path d="M111,34L123,40L111,46L111,34Z" style="fill:rgb(53,132,228);fill-opacity:0.55;fill-rule:nonzero;"/>
    </g>
    <g transform="matrix(2.163311,0,0,2.163311,107.355705,73.467562)">
        <path d="M111,34L123,40L111,46L111,34Z" style="fill:rgb(53,132,228);fill-opacity:0.55;fill-rule:nonzero;"/>
    </g>
    <g transform="matrix(-0.344173,1.251834,-1.251834,-0.344173,268.44661,-29.710217)">
        <path d="M125,154L113,160L125,166L125,154Z" style="fill:rgb(53,132,228);fill-opacity:0.55;fill-rule:nonzero;"/>
    </g>
    <g transform="matrix(-0.990961,0,0,1,479.073123,0)">
        <path d="M25.738,68.868C24.486,68.617 24.422,68.634 23.357,69.335C22.064,70.186 22.173,70.35 21.902,71.868C15.513,107.654 42.567,111.785 62.511,124.354C69.505,128.761 74.725,133.397 78.941,139.764C79.274,140.266 79.29,140.292 79.882,140.428C79.898,140.431 81.029,140.24 81.034,140.233C81.257,139.925 81.609,139.674 81.695,139.305C81.881,138.506 81.716,138.504 81.282,137.803C65.073,111.652 30.363,112.439 27.164,87.347C26.232,80.033 28.256,72.725 28.223,72.563C27.782,70.394 27.85,70.371 27.743,70.212C27.039,69.16 26.987,69.12 25.738,68.868Z" style="fill:rgb(53,132,228);fill-opacity:0.46;"/>
    </g>
    <g transform="matrix(0.341062,1.251834,1.240519,-0.344173,213.053043,-29.710217)">
        <path d="M125,154L113,160L125,166L125,154Z" style="fill:rgb(53,132,228);fill-opacity:0.55;fill-rule:nonzero;"/>
    </g>
</svg>
